<?xml version="1.0" encoding="utf-8"?>
<!-- Generator: Adobe Illustrator 20.0.0, SVG Export Plug-In . SVG Version: 6.00 Build 0)  -->
<svg version="1.1" id="Layer_1" xmlns="http://www.w3.org/2000/svg" xmlns:xlink="http://www.w3.org/1999/xlink" width="210" height="62" x="0px" y="0px"
	 viewBox="0 0 419.53 123.729" style="enable-background:new 0 0 419.53 123.729;" xml:space="preserve">
  <style type="text/css">
    .st0{fill: white;}
  </style>
  <rect x="18.394" y="35.6" class="st0" width="15.876" height="62.086"/>
  <rect x="37.396" y="40.597" class="st0" width="15.876" height="62.085"/>
  <rect x="55.879" y="32.723" class="st0" width="15.875" height="62.084"/>
  <rect x="74.361" y="21.736" class="st0" width="15.877" height="62.084"/>
  <g>
    <path class="st0" d="M142.887,41.635l19.443,51.996h-11.867l-3.936-11.583h-19.443l-4.078,11.583h-11.509l19.665-51.996H142.887z
       M143.542,73.529l-6.554-19.078h-0.15l-6.768,19.078H143.542z"/>
    <path class="st0" d="M189.683,88.824c-1.214,2.041-2.802,3.508-4.768,4.408c-1.967,0.895-4.188,1.344-6.664,1.344
      c-2.816,0-5.291-0.545-7.427-1.641c-2.14-1.088-3.896-2.572-5.28-4.44c-1.386-1.868-2.428-4.017-3.131-6.447
      c-0.703-2.424-1.057-4.949-1.057-7.571c0-2.523,0.354-4.965,1.057-7.32c0.703-2.353,1.745-4.431,3.131-6.224
      c1.384-1.797,3.119-3.241,5.205-4.336c2.089-1.091,4.516-1.638,7.283-1.638c2.232,0,4.359,0.474,6.373,1.421
      s3.605,2.343,4.771,4.187h0.144V41.635h10.342v51.996h-9.833v-4.807H189.683z M189.246,70.217
      c-0.289-1.432-0.789-2.694-1.492-3.789c-0.703-1.088-1.617-1.977-2.731-2.658c-1.118-0.678-2.524-1.017-4.224-1.017
      c-1.701,0-3.13,0.339-4.295,1.017c-1.166,0.682-2.103,1.58-2.807,2.695c-0.701,1.117-1.213,2.393-1.527,3.827
      c-0.318,1.427-0.475,2.922-0.475,4.474c0,1.459,0.172,2.916,0.512,4.37c0.336,1.458,0.885,2.756,1.636,3.901
      c0.755,1.14,1.699,2.061,2.841,2.764c1.141,0.701,2.514,1.054,4.115,1.054c1.699,0,3.121-0.335,4.262-1.017
      c1.139-0.678,2.049-1.59,2.731-2.732c0.678-1.139,1.166-2.438,1.455-3.895c0.293-1.455,0.436-2.963,0.436-4.516
      C189.683,73.139,189.539,71.649,189.246,70.217z"/>
    <path class="st0" d="M207.438,61.512c1.065-1.6,2.429-2.885,4.077-3.857c1.65-0.971,3.508-1.662,5.572-2.074
      c2.064-0.414,4.14-0.621,6.229-0.621c1.893,0,3.809,0.133,5.752,0.404c1.939,0.264,3.711,0.787,5.314,1.559
      c1.604,0.783,2.912,1.863,3.935,3.244c1.017,1.383,1.526,3.216,1.526,5.498v19.594c0,1.698,0.1,3.322,0.294,4.878
      c0.192,1.553,0.534,2.719,1.019,3.495h-10.484c-0.197-0.585-0.355-1.176-0.475-1.783c-0.123-0.608-0.207-1.227-0.254-1.858
      c-1.651,1.698-3.594,2.889-5.826,3.566c-2.235,0.678-4.519,1.02-6.846,1.02c-1.8,0-3.471-0.221-5.027-0.656
      c-1.553-0.432-2.91-1.113-4.076-2.039c-1.166-0.922-2.076-2.088-2.733-3.498c-0.654-1.404-0.983-3.078-0.983-5.02
      c0-2.136,0.378-3.898,1.128-5.281c0.752-1.385,1.725-2.488,2.912-3.316c1.191-0.822,2.551-1.439,4.078-1.855
      c1.531-0.41,3.072-0.74,4.627-0.984c1.553-0.24,3.084-0.436,4.59-0.58c1.502-0.146,2.84-0.362,4.004-0.654
      c1.165-0.293,2.088-0.719,2.769-1.277c0.674-0.557,0.992-1.369,0.945-2.441c0-1.115-0.184-2-0.548-2.654
      c-0.364-0.655-0.852-1.166-1.454-1.528c-0.611-0.366-1.314-0.606-2.114-0.729c-0.803-0.121-1.665-0.185-2.586-0.185
      c-2.04,0-3.641,0.44-4.807,1.315c-1.163,0.873-1.845,2.328-2.041,4.37h-10.339C205.762,65.133,206.369,63.119,207.438,61.512z
       M227.868,76.115c-0.661,0.217-1.362,0.4-2.115,0.543c-0.753,0.15-1.539,0.271-2.366,0.369c-0.824,0.095-1.648,0.217-2.475,0.363
      c-0.775,0.145-1.543,0.338-2.295,0.582c-0.754,0.241-1.41,0.572-1.967,0.985c-0.557,0.41-1.008,0.934-1.348,1.562
      c-0.34,0.632-0.508,1.433-0.508,2.405c0,0.922,0.168,1.698,0.508,2.332c0.34,0.627,0.803,1.124,1.383,1.49
      c0.586,0.364,1.264,0.618,2.041,0.766c0.775,0.145,1.576,0.219,2.404,0.219c2.039,0,3.615-0.341,4.734-1.021
      c1.111-0.681,1.939-1.495,2.475-2.44c0.531-0.945,0.858-1.905,0.983-2.875c0.121-0.973,0.184-1.747,0.184-2.332v-3.858
      C229.068,75.594,228.523,75.898,227.868,76.115z"/>
    <path class="st0" d="M254.893,55.981v4.807h0.145c1.262-2.037,2.865-3.523,4.807-4.444c1.939-0.923,4.078-1.384,6.408-1.384
      c2.959,0,5.508,0.56,7.646,1.676c2.137,1.115,3.908,2.6,5.315,4.443s2.454,3.995,3.136,6.444c0.678,2.45,1.018,5.011,1.018,7.684
      c0,2.522-0.34,4.949-1.018,7.281c-0.682,2.332-1.715,4.393-3.098,6.191c-1.385,1.795-3.105,3.228-5.17,4.293
      c-2.064,1.07-4.482,1.603-7.248,1.603c-2.332,0-4.48-0.475-6.441-1.418c-1.969-0.947-3.582-2.344-4.845-4.189h-0.147v17.842
      h-10.342V55.98L254.893,55.981L254.893,55.981z M268.326,85.838c1.146-0.678,2.066-1.566,2.77-2.658
      c0.701-1.092,1.203-2.365,1.491-3.824c0.292-1.457,0.44-2.937,0.44-4.443c0-1.502-0.159-2.986-0.475-4.441
      c-0.318-1.457-0.84-2.756-1.566-3.895c-0.729-1.143-1.664-2.061-2.805-2.77c-1.141-0.701-2.539-1.054-4.188-1.054
      c-1.699,0-3.123,0.353-4.262,1.054c-1.139,0.709-2.064,1.617-2.766,2.733c-0.705,1.117-1.203,2.4-1.494,3.859
      c-0.291,1.457-0.436,2.961-0.436,4.514c0,1.507,0.156,2.986,0.475,4.443c0.314,1.459,0.824,2.732,1.527,3.824
      s1.639,1.981,2.805,2.658c1.166,0.682,2.574,1.017,4.223,1.017C265.766,86.854,267.188,86.519,268.326,85.838z"/>
    <path class="st0" d="M308.143,55.981v6.918h-7.576v18.643c0,1.748,0.291,2.914,0.874,3.496s1.747,0.871,3.493,0.871
      c0.586,0,1.145-0.023,1.678-0.07c0.535-0.048,1.043-0.123,1.531-0.219v8.012c-0.873,0.146-1.848,0.24-2.915,0.289
      c-1.067,0.053-2.112,0.074-3.132,0.074c-1.604,0-3.119-0.113-4.553-0.33c-1.431-0.219-2.695-0.639-3.785-1.271
      c-1.094-0.634-1.954-1.528-2.586-2.694c-0.629-1.166-0.947-2.695-0.947-4.59V62.899h-6.262v-6.918h6.262V44.694h10.342v11.287
      L308.143,55.981L308.143,55.981z"/>
    <path class="st0" d="M312.684,50.15v-8.516h10.34v8.516H312.684z M323.023,55.981v37.65h-10.34v-37.65H323.023z"/>
    <path class="st0" d="M339.106,93.631l-12.892-37.65h10.854l7.936,25.705h0.146l7.938-25.705h10.269l-12.743,37.65H339.106z"/>
    <path class="st0" d="M375.926,84.597c1.555,1.513,3.787,2.258,6.698,2.258c2.089,0,3.885-0.517,5.394-1.561
      c1.502-1.045,2.423-2.15,2.762-3.316h9.105c-1.453,4.516-3.691,7.748-6.697,9.686c-3.015,1.947-6.654,2.913-10.926,2.913
      c-2.965,0-5.635-0.475-8.012-1.418c-2.377-0.947-4.394-2.293-6.043-4.041c-1.65-1.751-2.926-3.836-3.824-6.266
      c-0.899-2.428-1.348-5.096-1.348-8.009c0-2.815,0.461-5.438,1.386-7.87c0.922-2.425,2.23-4.523,3.933-6.297
      c1.697-1.773,3.725-3.167,6.08-4.188c2.354-1.019,4.964-1.529,7.828-1.529c3.203,0,5.992,0.621,8.376,1.858
      c2.378,1.241,4.333,2.901,5.86,4.987c1.533,2.087,2.635,4.467,3.312,7.135c0.681,2.674,0.926,5.465,0.729,8.379h-27.162
      C373.523,80.668,374.371,83.096,375.926,84.597z M387.613,64.792c-1.236-1.358-3.122-2.039-5.643-2.039
      c-1.652,0-3.024,0.278-4.113,0.837c-1.094,0.56-1.969,1.251-2.623,2.074c-0.658,0.824-1.119,1.699-1.383,2.625
      c-0.268,0.922-0.428,1.746-0.475,2.473h16.822C389.716,68.141,388.852,66.149,387.613,64.792z"/>
  </g>
</svg>
